<?xml version="1.0" encoding="UTF-8"?>
<svg id="Capa_2" data-name="Capa 2" xmlns="http://www.w3.org/2000/svg" viewBox="0 0 286.01 251.01">
  <defs>
    <style>
      .cls-1 {
        fill: #6950b2;
      }
    </style>
  </defs>
  <g id="Capa_1-2" data-name="Capa 1">
    <path class="cls-1" d="M212.77,0c4.51.78,2.38,7.47,2.49,10.45.51,13.63.48,27.1,0,40.85-.38,10.55-2.7,17.98,9.58,19.31,7.36.8,15.34-.82,22.76-.92,1.04-.09,3.54,2.05,3.54,2.53v65.74c0,.25,3.13,2.49,3.49,2.49h31.39v109.07c0,.11-1.39,1.49-1.49,1.49H0v-110.56h32.39c.42,0,3.49-3.97,3.49-4.48v-65.24c0-.33,5.87-.82,6.48-.83,1.49,0,3.14.86,4.94.88,3.09.03,22.47.57,22.47-2.54V2.49c0-.13.86-2.49,1-2.49h142.01ZM105.64,84.17c1.57-15.19-1.16-32.85,0-48.31,4.79-.19,9.66.26,14.45,0,16.39-.9,40.9-2.95,56.85-1.05.99.12,3.44.43,3.44,1.54v111.56c0,.91,3.45,4.64,4.48,5.48,2.85,2.34,17.28,13.14,19.71,14.16,3.92,1.64,5.09,1.41,5.61-2.78-.23-51.52.92-103.24-.58-154.65l-1.73-3.25-130.21-.48c-.85.58-1.86,8.26-1.97,9.98-1.1,16.88.52,35.37.51,52.37.69,1.6,1.39,3.08,2.59,4.38,2.32,2.5,18.25,14.5,21.11,15.75,1.59.69,3,.94,4.72.76-.8-2.06.87-4.24,1-5.49ZM113.11,40.84c-.33.51-1.49,1.22-1.49,1.49v53.79c0,.53,2.26,3.36,2.95,4.03,1.89,1.85,20.2,15.27,21.51,15.42,1.12.13,2.33.06,2.99-.97l1.49-65.33c.44-1.86-1.91-8.43-3.53-8.43h-23.92ZM149.18,41.03c-1.84.54-2.79,2.41-2.73,4.24l.26,77.54c.31,1.37.9,2.15,1.86,3.13,3.05,3.09,10.18,8.17,13.98,10.93,3.34,2.43,11,9.93,11.91,2.13l-.26-94.46c-.56-1.95-1.13-3.32-3.27-3.71-2.46-.45-19.69-.4-21.74.2ZM241.67,75.7c-3.74-1.03-18.71,0-23.92,0-.11,0-1.49,1.39-1.49,1.49v104.59c0,.35-1.5,1.71-2.47,1.49-.81-.19-6.62-5.86-8.01-6.95-5.27-4.1-11.05-7.56-16.37-11.53-39.53-29.49-78.1-60.67-118.61-88.63-5-.09-25.68-1.81-28.52.44-.55.44-1.02,1.09-1.22,1.77l.26,128.89c.22.8.46,1.51,1.21,1.98,2.08,1.31,23.08,1.51,25.26.43.79-.39,1.55-1.34,1.8-2.19.59-14.22-.11-28.47.14-42.69.16-8.86.99-18.02,1.09-26.81.12-10-1.25-22.55-.02-31.91.18-1.34-.61-1.79,1.47-1.52,4.5.59,17.04,12.11,21.5,15.38,24.33,17.81,48.48,35.84,72.59,53.94,8.72,6.55,42.66,35.04,50.45,36.23,4.65.71,19.11.66,23.92.11,4.07-.47,4.2-2.83,4.48-6.48,2.96-39.17-2.33-82.03-.02-121.59.25-1.76-2.08-6.05-3.51-6.45ZM76.77,116.57l-.85,89.93c.57,1.92,3.44,3.32,5.35,3.62,2.71.42,19.75.53,21.72-.1,1.83-.59,2.57-3.53,2.67-5.3l-.23-66.56c-1.42-6.37-20.27-15.42-24.72-21.11-.82-.56-3.69-.81-3.94-.47ZM111.62,143.44v71.22c0,.11-1.39,1.49-1.49,1.49H37.37c-2.99,0-1.61-6.53-1.68-7.46-1.45-17.91.96-35.96.23-53.76-.07-1.77-1.7-8.5-3.53-8.5H7.47c-.11,0-1.49,1.39-1.49,1.49v93.63c0,1.19,2.7,4.19,4.43,3.54l128.14-.53c2.61-1.55,2.08-9.07,1.98-11.98-.58-15.7-.46-32.01-.65-47.98-.07-6.22,2.68-19.36-1.81-24.27-1.28-1.4-21.82-16.25-23.18-16.68-.78-.24-3.09-.42-3.27-.22ZM146.49,169.33v73.21c0,.77,3.17,2.97,4.43,2.54h124.67c2.75.03,4.51-1.7,4.48-4.48l-.23-91.51c-1.37-4.71-15.13-3.99-19.25-3.67-1.81.14-9.47,1.23-9.47,2.49v66.74c0,.11-1.39,1.49-1.49,1.49h-72.75c-.7,0-2.28-2.4-2.48-3.5-1.04-5.96,1.7-20.52-1.12-24.78l-22.25-17.6c-.81-.86-4.21-1.32-4.55-.93ZM180.38,195.23c-.48.53-.47,12.55,1.4,14.04,1.67,1.32,10.51,1.25,13.09.96,8.75-1.01-1.62-8.39-4.61-10.43-1.6-1.09-8.6-5.99-9.89-4.56Z"/>
  </g>
</svg>